<svg xmlns="http://www.w3.org/2000/svg" xmlns:xlink="http://www.w3.org/1999/xlink" width="68" height="40" viewBox="0 0 68 40">
  <defs>
    <clipPath id="clip-path">
      <rect id="Retângulo_232" data-name="Retângulo 232" width="68" height="40" transform="translate(328.581 92.932)" fill="#0d0d0d"/>
    </clipPath>
  </defs>
  <g id="Grupo_de_máscara_147" data-name="Grupo de máscara 147" transform="translate(-328.581 -92.932)" clip-path="url(#clip-path)">
    <g id="_040-email" data-name="040-email" transform="translate(328.581 92.926)">
      <path id="Caminho_897" data-name="Caminho 897" d="M59.121,56.053h-38.3a6.352,6.352,0,0,1-4.841-2.247,6.47,6.47,0,0,1-1.457-5.172l4.191-27.15a6.364,6.364,0,0,1,6.3-5.441h38.3a6.352,6.352,0,0,1,4.841,2.247,6.47,6.47,0,0,1,1.457,5.172l-4.191,27.15a6.364,6.364,0,0,1-6.3,5.441ZM25.016,20.329a2.119,2.119,0,0,0-2.1,1.815l-4.191,27.15a2.128,2.128,0,0,0,.485,1.726,2.089,2.089,0,0,0,1.612.746h38.3a2.119,2.119,0,0,0,2.1-1.815L65.411,22.8a2.128,2.128,0,0,0-.484-1.726,2.089,2.089,0,0,0-1.612-.746Z" transform="translate(-1.689 -16.042)" fill="#0d0d0d"/>
      <path id="Caminho_898" data-name="Caminho 898" d="M42.745,41.208a7.748,7.748,0,0,1-3.955-1.092L19.574,28.69a2.152,2.152,0,0,1,0-3.75A2.109,2.109,0,0,1,21.73,25L40.948,36.424a3.51,3.51,0,0,0,3.38.117L66.565,25.327a2.117,2.117,0,0,1,2.783.992,2.153,2.153,0,0,1-.884,2.84L46.227,40.374a7.7,7.7,0,0,1-3.482.835Z" transform="translate(-2.16 -16.984)" fill="#0d0d0d"/>
      <path id="Caminho_899" data-name="Caminho 899" d="M12.042,26.745H2.125a2.144,2.144,0,0,1,0-4.287h9.917a2.144,2.144,0,0,1,0,4.287Z" transform="translate(0 -16.743)" fill="#0d0d0d"/>
      <path id="Caminho_900" data-name="Caminho 900" d="M9.208,39.579H2.125a2.144,2.144,0,0,1,0-4.287H9.208a2.144,2.144,0,0,1,0,4.287Z" transform="translate(0 -18.144)" fill="#0d0d0d"/>
      <path id="Caminho_901" data-name="Caminho 901" d="M6.375,52.412H2.125a2.144,2.144,0,0,1,0-4.287h4.25a2.144,2.144,0,0,1,0,4.287Z" transform="translate(0 -19.546)" fill="#0d0d0d"/>
    </g>
  </g>
</svg>
