<svg xmlns="http://www.w3.org/2000/svg" width="15.825" height="14.814" viewBox="0 0 15.825 14.814">
  <path id="star" d="M14.675,7.39a1.023,1.023,0,0,0,.272-1.074,1.062,1.062,0,0,0-.869-.713l-3.632-.514a.474.474,0,0,1-.357-.253L8.465,1.631a1.089,1.089,0,0,0-1.929,0L4.912,4.836a.474.474,0,0,1-.358.253L.922,5.6a1.061,1.061,0,0,0-.868.713A1.023,1.023,0,0,0,.326,7.39L2.954,9.885a.456.456,0,0,1,.137.41l-.62,3.523A1.029,1.029,0,0,0,2.9,14.842a1.091,1.091,0,0,0,1.133.08l3.248-1.663a.487.487,0,0,1,.442,0l3.248,1.663a1.094,1.094,0,0,0,1.133-.08,1.029,1.029,0,0,0,.428-1.024l-.621-3.523a.456.456,0,0,1,.137-.41Zm-3.357,3,.62,3.523a.449.449,0,0,1-.189.453.478.478,0,0,1-.5.035L8,12.741a1.1,1.1,0,0,0-1,0L3.752,14.4a.479.479,0,0,1-.5-.035.449.449,0,0,1-.189-.453l.62-3.523a1.031,1.031,0,0,0-.309-.927L.745,6.971A.445.445,0,0,1,.625,6.5a.463.463,0,0,1,.383-.315L4.64,5.668A1.073,1.073,0,0,0,5.45,5.1L7.074,1.89a.481.481,0,0,1,.852,0L9.55,5.1a1.072,1.072,0,0,0,.81.573l3.632.514a.463.463,0,0,1,.383.315.446.446,0,0,1-.12.474L11.627,9.466A1.03,1.03,0,0,0,11.318,10.394Z" transform="translate(0.412 -0.647)" fill="#ffa200" stroke="#ffa200" stroke-width="0.8"/>
</svg>
